<mxfile host="Electron" modified="2023-05-03T14:48:23.784Z" agent="Mozilla/5.0 (X11; Linux x86_64) AppleWebKit/537.36 (KHTML, like Gecko) draw.io/21.2.1 Chrome/112.0.5615.87 Electron/24.1.2 Safari/537.36" etag="yRkf8Hyd6r25V-sfb5Eo" version="21.2.1" type="device">
  <diagram name="第 1 页" id="Fc-edjjhVmWlZLsaOgX1">
    <mxGraphModel dx="1116" dy="753" grid="1" gridSize="10" guides="1" tooltips="1" connect="1" arrows="1" fold="1" page="1" pageScale="1" pageWidth="827" pageHeight="1169" math="0" shadow="0">
      <root>
        <mxCell id="0" />
        <mxCell id="1" parent="0" />
        <mxCell id="t3iNTJjgREvIQcFdDGKI-243" value="" style="rounded=1;whiteSpace=wrap;html=1;fillColor=#f5f5f5;strokeColor=#666666;fontColor=#333333;" vertex="1" parent="1">
          <mxGeometry x="150" y="160" width="440" height="150" as="geometry" />
        </mxCell>
        <mxCell id="t3iNTJjgREvIQcFdDGKI-235" value="&lt;font style=&quot;font-size: 14px;&quot;&gt;real obj&lt;/font&gt;" style="rounded=0;whiteSpace=wrap;html=1;fillColor=#dae8fc;strokeColor=#6c8ebf;" vertex="1" parent="1">
          <mxGeometry x="310" y="200" width="120" height="60" as="geometry" />
        </mxCell>
        <mxCell id="t3iNTJjgREvIQcFdDGKI-237" value="redzone" style="rounded=0;whiteSpace=wrap;html=1;fillColor=#fa6800;fontColor=#000000;strokeColor=#C73500;" vertex="1" parent="1">
          <mxGeometry x="430" y="200" width="140" height="60" as="geometry" />
        </mxCell>
        <mxCell id="t3iNTJjgREvIQcFdDGKI-239" value="" style="shape=curlyBracket;whiteSpace=wrap;html=1;rounded=1;labelPosition=left;verticalLabelPosition=middle;align=right;verticalAlign=middle;direction=north;" vertex="1" parent="1">
          <mxGeometry x="170" y="260" width="140" height="20" as="geometry" />
        </mxCell>
        <mxCell id="t3iNTJjgREvIQcFdDGKI-240" value="" style="shape=curlyBracket;whiteSpace=wrap;html=1;rounded=1;labelPosition=left;verticalLabelPosition=middle;align=right;verticalAlign=middle;direction=north;" vertex="1" parent="1">
          <mxGeometry x="430" y="260" width="140" height="20" as="geometry" />
        </mxCell>
        <mxCell id="t3iNTJjgREvIQcFdDGKI-241" value="&lt;font style=&quot;font-size: 14px;&quot;&gt;64 B&lt;/font&gt;" style="text;html=1;align=center;verticalAlign=middle;resizable=0;points=[];autosize=1;strokeColor=none;fillColor=none;" vertex="1" parent="1">
          <mxGeometry x="215" y="280" width="50" height="30" as="geometry" />
        </mxCell>
        <mxCell id="t3iNTJjgREvIQcFdDGKI-242" value="&lt;span style=&quot;font-size: 14px;&quot;&gt;64 B&lt;/span&gt;" style="text;html=1;align=center;verticalAlign=middle;resizable=0;points=[];autosize=1;strokeColor=none;fillColor=none;" vertex="1" parent="1">
          <mxGeometry x="475" y="280" width="50" height="30" as="geometry" />
        </mxCell>
        <mxCell id="t3iNTJjgREvIQcFdDGKI-244" value="slab obj" style="text;html=1;align=center;verticalAlign=middle;resizable=0;points=[];autosize=1;strokeColor=none;fillColor=none;" vertex="1" parent="1">
          <mxGeometry x="160" y="160" width="60" height="30" as="geometry" />
        </mxCell>
        <mxCell id="t3iNTJjgREvIQcFdDGKI-245" value="redzone" style="rounded=0;whiteSpace=wrap;html=1;fillColor=#fa6800;fontColor=#000000;strokeColor=#C73500;" vertex="1" parent="1">
          <mxGeometry x="170" y="200" width="140" height="60" as="geometry" />
        </mxCell>
      </root>
    </mxGraphModel>
  </diagram>
</mxfile>
